<svg width="702" height="456" viewBox="0 0 702 456" fill="none" xmlns="http://www.w3.org/2000/svg">
<path d="M450.965 177.149L480.972 268.935C483.105 275.456 491.135 277.787 496.427 273.418L586.046 199.437C586.046 199.437 490.814 162.29 490.814 164.316C490.814 166.343 450.965 177.149 450.965 177.149Z" fill="#B5D1DB"/>
<path d="M687.416 0.742321C628.891 23.8916 439.983 101.301 368.484 130.633C359.043 134.505 359.61 148.047 369.33 151.145L450.965 177.149L480.878 268.645C482.081 272.324 485.119 274.697 488.508 275.335C491.259 275.852 495.319 201.241 495.319 201.241C495.319 201.241 581.138 264.885 621.845 294.944C631.874 302.349 646.194 296.78 648.569 284.543C660.694 222.047 691.016 65.7815 701.382 12.3578C702.94 4.32219 695.024 -2.26607 687.416 0.742321Z" fill="white"/>
<path d="M488.508 275.333C491.259 275.85 495.316 201.239 495.316 201.239L636.305 68.8073C637.258 67.9117 636.12 66.4026 634.996 67.073L450.962 177.149L480.876 268.645C482.08 272.324 485.119 274.697 488.508 275.333Z" fill="#D6E2EA"/>
<path d="M0 455C96.8376 454.703 225.565 400.097 251.404 295.243C261.832 252.93 252.562 207.592 219.024 176.709C176.642 137.681 130.108 173.344 141.558 227.814C160.368 317.297 269.655 383.558 352.719 384.496C400.728 385.037 445.769 362.017 463.028 314.974" stroke="white" stroke-width="2" stroke-miterlimit="10" stroke-dasharray="5 5"/>
</svg>
